# xmcd
#
# Track frame offsets: 
#        150
#        13680
#        29030
#        42707
#        57015
#        71332
#        85672
#        101367
#        116920
#        131640
#        142797
#        156357
#        171792
#        186240
#        199712
#        216552
#        228690
#        243287
#        255737
#        273622
#        290422
#        308062
#        327792
#
# Disc length: 4571 seconds
#
# Revision: 2
# Processed by: cddbd v1.5.2PL0 Copyright (c) Steve Scherf et al.
# Submitted via: ExactAudioCopy v1.0b1
#
DISCID=5811d917
DTITLE=Four Tops - Yesterday's Dreams - Soul Spin
DYEAR=2001
DGENRE=R&B
TTITLE0=Yesterday's Dreams
TTITLE1=Can't Seem To Get You Out Of My Mind
TTITLE2=I'm In A Different World
TTITLE3=We've Got A Strong Love (On Our Side)
TTITLE4=By The Time I Get To Phoenix
TTITLE5=Remember When
TTITLE6=Sunny
TTITLE7=Never My Love
TTITLE8=Daydream Believer
TTITLE9=Once Upon A Time
TTITLE10=Sweetheart Tree
TTITLE11=Place In The Sun
TTITLE12=Look Out Your Window
TTITLE13=Barbara's Boy
TTITLE14=Lost In A Pool Of Red
TTITLE15=Got To Get Your Into My Life
TTITLE16=Stop The World
TTITLE17=Nothing
TTITLE18=This Guy's In Live With You
TTITLE19=Light My Fire
TTITLE20=Honey
TTITLE21=The Look Of Love
TTITLE22=California Dreaming
EXTD=
EXTT0=
EXTT1=
EXTT2=
EXTT3=
EXTT4=
EXTT5=
EXTT6=
EXTT7=
EXTT8=
EXTT9=
EXTT10=
EXTT11=
EXTT12=
EXTT13=
EXTT14=
EXTT15=
EXTT16=
EXTT17=
EXTT18=
EXTT19=
EXTT20=
EXTT21=
EXTT22=
PLAYORDER=
